<mxfile host="65bd71144e" pages="2">
    <diagram id="yhoIrI8u5d32TU5b2MNR" name="Fondo">
        <mxGraphModel dx="990" dy="645" grid="1" gridSize="10" guides="1" tooltips="1" connect="1" arrows="1" fold="1" page="1" pageScale="1" pageWidth="1169" pageHeight="827" math="0" shadow="0">
            <root>
                <mxCell id="0"/>
                <mxCell id="1" parent="0"/>
                <mxCell id="6" value="" style="group" parent="1" vertex="1" connectable="0">
                    <mxGeometry x="161" y="390" width="935" height="599.18" as="geometry"/>
                </mxCell>
                <mxCell id="DnMpbyiCHQL4w1rr7Td--10" value="&amp;nbsp;" style="shape=crossbar;whiteSpace=wrap;html=1;rounded=1;" parent="6" vertex="1">
                    <mxGeometry y="20" width="846.4549999999999" height="20" as="geometry"/>
                </mxCell>
                <mxCell id="5" value="" style="group" parent="6" vertex="1" connectable="0">
                    <mxGeometry x="1" width="934" height="599.18" as="geometry"/>
                </mxCell>
                <mxCell id="4" value="" style="group" parent="5" vertex="1" connectable="0">
                    <mxGeometry width="934" height="599.18" as="geometry"/>
                </mxCell>
                <mxCell id="DnMpbyiCHQL4w1rr7Td--1" value="" style="rounded=0;whiteSpace=wrap;html=1;imageWidth=24;" parent="4" vertex="1">
                    <mxGeometry y="48" width="846.4549999999999" height="551.18" as="geometry"/>
                </mxCell>
                <mxCell id="DnMpbyiCHQL4w1rr7Td--14" value="&lt;span style=&quot;font-size: 14px;&quot;&gt;140 mm&lt;/span&gt;" style="text;html=1;align=center;verticalAlign=middle;resizable=0;points=[];autosize=1;strokeColor=none;fillColor=none;fontSize=14;" parent="4" vertex="1">
                    <mxGeometry x="864" y="314" width="70" height="20" as="geometry"/>
                </mxCell>
                <mxCell id="DnMpbyiCHQL4w1rr7Td--16" value="215 mm" style="text;html=1;align=center;verticalAlign=middle;resizable=0;points=[];autosize=1;strokeColor=none;fillColor=none;fontSize=14;" parent="4" vertex="1">
                    <mxGeometry x="389" width="70" height="20" as="geometry"/>
                </mxCell>
                <mxCell id="11" value="" style="group" parent="4" vertex="1" connectable="0">
                    <mxGeometry x="18" y="80" width="345.59" height="197.48000000000002" as="geometry"/>
                </mxCell>
                <mxCell id="7" value="40 mm" style="text;html=1;align=center;verticalAlign=middle;resizable=0;points=[];autosize=1;strokeColor=none;" parent="11" vertex="1">
                    <mxGeometry y="108.74000000000001" width="50" height="20" as="geometry"/>
                </mxCell>
                <mxCell id="8" value="" style="shape=crossbar;whiteSpace=wrap;html=1;rounded=1;" parent="11" vertex="1">
                    <mxGeometry x="70" y="10" width="275.59" height="20" as="geometry"/>
                </mxCell>
                <mxCell id="9" value="70 mm" style="text;html=1;align=center;verticalAlign=middle;resizable=0;points=[];autosize=1;strokeColor=none;" parent="11" vertex="1">
                    <mxGeometry x="185" width="50" height="20" as="geometry"/>
                </mxCell>
                <mxCell id="DnMpbyiCHQL4w1rr7Td--18" value="FUENTE ALIMENTACIÃ“N" style="rounded=0;whiteSpace=wrap;html=1;fontSize=14;" parent="11" vertex="1">
                    <mxGeometry x="70" y="40" width="275.59" height="157.48" as="geometry"/>
                </mxCell>
                <mxCell id="2" value="" style="shape=crossbar;whiteSpace=wrap;html=1;rounded=1;direction=south;" parent="11" vertex="1">
                    <mxGeometry x="40" y="40" width="20" height="157.48" as="geometry"/>
                </mxCell>
                <mxCell id="130" value="5V" style="shape=process;whiteSpace=wrap;html=1;backgroundOutline=1;rotation=-90;direction=east;" vertex="1" parent="11">
                    <mxGeometry x="285.59" y="103.74" width="60" height="30" as="geometry"/>
                </mxCell>
                <mxCell id="131" value="24V" style="shape=process;whiteSpace=wrap;html=1;backgroundOutline=1;rotation=90;direction=east;" vertex="1" parent="11">
                    <mxGeometry x="59.99999999999997" y="103.74000000000001" width="60" height="30" as="geometry"/>
                </mxCell>
                <mxCell id="22" value="" style="group" parent="4" vertex="1" connectable="0">
                    <mxGeometry y="314" width="544" height="256.5350000000001" as="geometry"/>
                </mxCell>
                <mxCell id="DnMpbyiCHQL4w1rr7Td--21" value="ARDUINO MEGA" style="rounded=0;whiteSpace=wrap;html=1;fontSize=14;" parent="22" vertex="1">
                    <mxGeometry x="70" y="40" width="433.07" height="216.535" as="geometry"/>
                </mxCell>
                <mxCell id="17" value="" style="shape=crossbar;whiteSpace=wrap;html=1;rounded=1;direction=south;" parent="22" vertex="1">
                    <mxGeometry x="40" y="40" width="20" height="216.535" as="geometry"/>
                </mxCell>
                <mxCell id="18" value="" style="shape=crossbar;whiteSpace=wrap;html=1;rounded=1;" parent="22" vertex="1">
                    <mxGeometry x="70" y="10" width="433.07" height="20" as="geometry"/>
                </mxCell>
                <mxCell id="19" value="110 mm" style="text;html=1;align=center;verticalAlign=middle;resizable=0;points=[];autosize=1;strokeColor=none;" parent="22" vertex="1">
                    <mxGeometry x="256.53" width="60" height="20" as="geometry"/>
                </mxCell>
                <mxCell id="20" value="55 mm" style="text;html=1;align=center;verticalAlign=middle;resizable=0;points=[];autosize=1;strokeColor=none;" parent="22" vertex="1">
                    <mxGeometry y="138.26999999999998" width="50" height="20" as="geometry"/>
                </mxCell>
                <mxCell id="58" value="RJ45" style="shape=process;whiteSpace=wrap;html=1;backgroundOutline=1;rotation=-90;" vertex="1" parent="22">
                    <mxGeometry x="60" y="76" width="60" height="30" as="geometry"/>
                </mxCell>
                <mxCell id="59" value="Fases" style="shape=process;whiteSpace=wrap;html=1;backgroundOutline=1;rotation=0;direction=west;" vertex="1" parent="22">
                    <mxGeometry x="256.53" y="46" width="60" height="30" as="geometry"/>
                </mxCell>
                <mxCell id="128" value="I2C" style="shape=process;whiteSpace=wrap;html=1;backgroundOutline=1;rotation=0;direction=west;" vertex="1" parent="22">
                    <mxGeometry x="358" y="46" width="60" height="30" as="geometry"/>
                </mxCell>
                <mxCell id="129" value="GPIO" style="shape=process;whiteSpace=wrap;html=1;backgroundOutline=1;rotation=90;direction=west;" vertex="1" parent="22">
                    <mxGeometry x="412" y="129" width="132" height="30" as="geometry"/>
                </mxCell>
                <mxCell id="135" value="5V" style="shape=process;whiteSpace=wrap;html=1;backgroundOutline=1;rotation=0;direction=east;" vertex="1" parent="22">
                    <mxGeometry x="207.9999999999999" y="216" width="60" height="30" as="geometry"/>
                </mxCell>
                <mxCell id="27" value="" style="group" parent="4" vertex="1" connectable="0">
                    <mxGeometry x="528" y="334" width="247.16999999999996" height="217.16499999999996" as="geometry"/>
                </mxCell>
                <mxCell id="DnMpbyiCHQL4w1rr7Td--20" value="L298N" style="rounded=0;whiteSpace=wrap;html=1;fontSize=14;" parent="27" vertex="1">
                    <mxGeometry x="70" y="40" width="177.165" height="177.165" as="geometry"/>
                </mxCell>
                <mxCell id="23" value="" style="shape=crossbar;whiteSpace=wrap;html=1;rounded=1;" parent="27" vertex="1">
                    <mxGeometry x="70" y="10" width="177.165" height="20" as="geometry"/>
                </mxCell>
                <mxCell id="24" value="" style="shape=crossbar;whiteSpace=wrap;html=1;rounded=1;direction=south;" parent="27" vertex="1">
                    <mxGeometry x="40" y="40" width="20" height="177.165" as="geometry"/>
                </mxCell>
                <mxCell id="25" value="45 mm" style="text;html=1;align=center;verticalAlign=middle;resizable=0;points=[];autosize=1;strokeColor=none;" parent="27" vertex="1">
                    <mxGeometry x="133.58000000000004" width="50" height="20" as="geometry"/>
                </mxCell>
                <mxCell id="26" value="45 mm" style="text;html=1;align=center;verticalAlign=middle;resizable=0;points=[];autosize=1;strokeColor=none;" parent="27" vertex="1">
                    <mxGeometry y="118.58000000000004" width="50" height="20" as="geometry"/>
                </mxCell>
                <mxCell id="132" value="Vcc" style="shape=process;whiteSpace=wrap;html=1;backgroundOutline=1;rotation=0;direction=east;" vertex="1" parent="27">
                    <mxGeometry x="93.58" y="176" width="60" height="30" as="geometry"/>
                </mxCell>
                <mxCell id="133" value="Control" style="shape=process;whiteSpace=wrap;html=1;backgroundOutline=1;rotation=0;direction=east;" vertex="1" parent="27">
                    <mxGeometry x="170" y="176" width="60" height="30" as="geometry"/>
                </mxCell>
                <mxCell id="134" value="Motor" style="shape=process;whiteSpace=wrap;html=1;backgroundOutline=1;rotation=-90;direction=east;" vertex="1" parent="27">
                    <mxGeometry x="187.16999999999996" y="126" width="60" height="30" as="geometry"/>
                </mxCell>
                <mxCell id="DnMpbyiCHQL4w1rr7Td--22" value="PLACA DE CONEXIONES" style="rounded=0;whiteSpace=wrap;html=1;fontSize=14;" parent="4" vertex="1">
                    <mxGeometry x="408" y="80" width="393.7" height="236.22" as="geometry"/>
                </mxCell>
                <mxCell id="bPALyh6alqHiRUwjyw6p-28" value="Conexiones Arduino" style="shape=process;whiteSpace=wrap;html=1;backgroundOutline=1;" parent="4" vertex="1">
                    <mxGeometry x="470" y="270" width="270" height="30" as="geometry"/>
                </mxCell>
                <mxCell id="bPALyh6alqHiRUwjyw6p-55" value="Con. disp" style="shape=process;whiteSpace=wrap;html=1;backgroundOutline=1;rotation=-90;" parent="4" vertex="1">
                    <mxGeometry x="704.45" y="183.11" width="142" height="30" as="geometry"/>
                </mxCell>
                <mxCell id="bPALyh6alqHiRUwjyw6p-85" value="Digitales" style="shape=process;whiteSpace=wrap;html=1;backgroundOutline=1;" parent="4" vertex="1">
                    <mxGeometry x="459" y="90" width="100" height="30" as="geometry"/>
                </mxCell>
                <mxCell id="bPALyh6alqHiRUwjyw6p-86" value="L298" style="shape=process;whiteSpace=wrap;html=1;backgroundOutline=1;" parent="4" vertex="1">
                    <mxGeometry x="568" y="90" width="100" height="30" as="geometry"/>
                </mxCell>
                <mxCell id="bPALyh6alqHiRUwjyw6p-87" value="AlimentaciÃ³n" style="shape=process;whiteSpace=wrap;html=1;backgroundOutline=1;" parent="4" vertex="1">
                    <mxGeometry x="678" y="90" width="100" height="30" as="geometry"/>
                </mxCell>
                <mxCell id="bPALyh6alqHiRUwjyw6p-118" value="Conexiones tapa" style="shape=process;whiteSpace=wrap;html=1;backgroundOutline=1;rotation=-90;" parent="4" vertex="1">
                    <mxGeometry x="361.07000000000005" y="183.11" width="142" height="30" as="geometry"/>
                </mxCell>
                <mxCell id="bPALyh6alqHiRUwjyw6p-119" value="" style="curved=1;endArrow=classic;html=1;rounded=0;exitX=1.009;exitY=0.201;exitDx=0;exitDy=0;exitPerimeter=0;entryX=0.5;entryY=0;entryDx=0;entryDy=0;" parent="4" source="DnMpbyiCHQL4w1rr7Td--18" target="bPALyh6alqHiRUwjyw6p-87" edge="1">
                    <mxGeometry width="50" height="50" relative="1" as="geometry">
                        <mxPoint x="428" y="300" as="sourcePoint"/>
                        <mxPoint x="478" y="250" as="targetPoint"/>
                        <Array as="points">
                            <mxPoint x="398" y="50"/>
                            <mxPoint x="498" y="70"/>
                            <mxPoint x="618" y="50"/>
                        </Array>
                    </mxGeometry>
                </mxCell>
                <mxCell id="DnMpbyiCHQL4w1rr7Td--11" value="" style="shape=crossbar;whiteSpace=wrap;html=1;rounded=1;direction=south;flipH=0;flipV=1;" parent="5" vertex="1">
                    <mxGeometry x="858" y="48" width="20" height="551.18" as="geometry"/>
                </mxCell>
            </root>
        </mxGraphModel>
    </diagram>
    <diagram id="eVJojJFudEc5wL8Mfcen" name="Tapa">
        <mxGraphModel dx="1952" dy="1576" grid="1" gridSize="10" guides="1" tooltips="1" connect="1" arrows="1" fold="1" page="1" pageScale="1" pageWidth="1169" pageHeight="827" math="0" shadow="0">
            <root>
                <mxCell id="DPrDUKC0RL_5YNiMhkmV-0"/>
                <mxCell id="DPrDUKC0RL_5YNiMhkmV-1" parent="DPrDUKC0RL_5YNiMhkmV-0"/>
                <mxCell id="7HqGt1HvUcfFhR7gu-_y-0" value="" style="group" vertex="1" connectable="0" parent="DPrDUKC0RL_5YNiMhkmV-1">
                    <mxGeometry x="120" y="90" width="935" height="599.18" as="geometry"/>
                </mxCell>
                <mxCell id="7HqGt1HvUcfFhR7gu-_y-1" value="&amp;nbsp;" style="shape=crossbar;whiteSpace=wrap;html=1;rounded=1;" vertex="1" parent="7HqGt1HvUcfFhR7gu-_y-0">
                    <mxGeometry y="20" width="846.4549999999999" height="20" as="geometry"/>
                </mxCell>
                <mxCell id="7HqGt1HvUcfFhR7gu-_y-2" value="" style="group" vertex="1" connectable="0" parent="7HqGt1HvUcfFhR7gu-_y-0">
                    <mxGeometry x="1" width="934" height="599.18" as="geometry"/>
                </mxCell>
                <mxCell id="7HqGt1HvUcfFhR7gu-_y-3" value="" style="group" vertex="1" connectable="0" parent="7HqGt1HvUcfFhR7gu-_y-2">
                    <mxGeometry width="934" height="599.18" as="geometry"/>
                </mxCell>
                <mxCell id="7HqGt1HvUcfFhR7gu-_y-4" value="" style="rounded=0;whiteSpace=wrap;html=1;imageWidth=24;" vertex="1" parent="7HqGt1HvUcfFhR7gu-_y-3">
                    <mxGeometry y="48" width="846.4549999999999" height="551.18" as="geometry"/>
                </mxCell>
                <mxCell id="7HqGt1HvUcfFhR7gu-_y-5" value="&lt;span style=&quot;font-size: 14px;&quot;&gt;140 mm&lt;/span&gt;" style="text;html=1;align=center;verticalAlign=middle;resizable=0;points=[];autosize=1;strokeColor=none;fillColor=none;fontSize=14;" vertex="1" parent="7HqGt1HvUcfFhR7gu-_y-3">
                    <mxGeometry x="864" y="314" width="70" height="20" as="geometry"/>
                </mxCell>
                <mxCell id="7HqGt1HvUcfFhR7gu-_y-6" value="215 mm" style="text;html=1;align=center;verticalAlign=middle;resizable=0;points=[];autosize=1;strokeColor=none;fillColor=none;fontSize=14;" vertex="1" parent="7HqGt1HvUcfFhR7gu-_y-3">
                    <mxGeometry x="389" width="70" height="20" as="geometry"/>
                </mxCell>
                <mxCell id="7HqGt1HvUcfFhR7gu-_y-25" value="" style="shape=crossbar;whiteSpace=wrap;html=1;rounded=1;direction=south;flipH=0;flipV=1;" vertex="1" parent="7HqGt1HvUcfFhR7gu-_y-2">
                    <mxGeometry x="858" y="48" width="20" height="551.18" as="geometry"/>
                </mxCell>
            </root>
        </mxGraphModel>
    </diagram>
</mxfile>